
<svg width="200" height="200" viewBox="0 0 200 200" xmlns="http://www.w3.org/2000/svg">
  <defs>
    <linearGradient id="barGradient" x1="0" y1="0" x2="0" y2="1">
      <stop offset="0%" stop-color="#FEF4E8" />
      <stop offset="100%" stop-color="#D27D2D" />
    </linearGradient>
  </defs>
  <!-- Gradient Bar -->
  <rect x="85" y="20" width="30" height="80" fill="url(#barGradient)" />

  <!-- Leaves -->
  <g transform="translate(100, 100)">
    <path d="M0,0 C-40,-30 -70,-20 -80,10 C-50,10 -20,10 0,0" fill="#D27D2D" />
    <path d="M0,0 C40,-30 70,-20 80,10 C50,10 20,10 0,0" fill="#F4A261" />
    <path d="M0,0 C-20,-50 -30,-80 0,-90 C10,-60 10,-30 0,0" fill="#D27D2D" />
    <path d="M0,0 C-30,-10 -60,20 -40,40 C-10,20 -5,10 0,0" fill="#F4A261" />
    <path d="M0,0 C30,-10 60,20 40,40 C10,20 5,10 0,0" fill="#D27D2D" />
  </g>

  <!-- Text -->
  <text x="50%" y="180" text-anchor="middle" fill="#1B3A4B" font-family="Arial, sans-serif" font-size="24" font-weight="bold">RTI4Edu</text>
</svg>
