<svg xmlns="http://www.w3.org/2000/svg" viewBox="0 0 512 512" width="120" height="120">
  <!-- Building foundation -->
  <rect x="64" y="320" width="384" height="96" fill="#d9d9d9" stroke="#333" stroke-width="8"/>
  
  <!-- Main building structure -->
  <rect x="112" y="160" width="288" height="160" fill="#f5f5f5" stroke="#333" stroke-width="8"/>
  
  <!-- College dome -->
  <path d="M256 64c-53 0-96 43-96 96h192c0-53-43-96-96-96z" fill="#ffd700" stroke="#333" stroke-width="8"/>
  
  <!-- Dome decoration -->
  <line x1="256" y1="64" x2="256" y2="32" stroke="#333" stroke-width="6"/>
  <circle cx="256" cy="24" r="8" fill="#ffd700" stroke="#333" stroke-width="3"/>
  
  <!-- Building columns -->
  <rect x="144" y="160" width="24" height="160" rx="4" fill="#fff" stroke="#333" stroke-width="2"/>
  <rect x="200" y="160" width="24" height="160" rx="4" fill="#fff" stroke="#333" stroke-width="2"/>
  <rect x="256" y="160" width="24" height="160" rx="4" fill="#fff" stroke="#333" stroke-width="2"/>
  <rect x="312" y="160" width="24" height="160" rx="4" fill="#fff" stroke="#333" stroke-width="2"/>
  <rect x="368" y="160" width="24" height="160" rx="4" fill="#fff" stroke="#333" stroke-width="2"/>
  
  <!-- Column tops -->
  <path d="M136 160h40M192 160h40M248 160h40M304 160h40M360 160h40" stroke="#333" stroke-width="6"/>
  
  <!-- Column bases -->
  <path d="M136 320h40M192 320h40M248 320h40M304 320h40M360 320h40" stroke="#333" stroke-width="6"/>
  
  <!-- Steps -->
  <path d="M112 320h288v16H112zM128 336h256v16H128zM144 352h224v16H144zM160 368h192v16H160zM176 384h160v16H176z" fill="#f5f5f5" stroke="#333" stroke-width="2"/>
  
  <!-- Front door -->
  <rect x="232" y="240" width="48" height="80" rx="8" fill="#a52a2a" stroke="#333" stroke-width="4"/>
  <circle cx="268" cy="280" r="4" fill="#ffd700"/>
  
  <!-- Windows -->
  <rect x="144" y="200" width="24" height="40" rx="4" fill="#87ceeb" stroke="#333" stroke-width="2"/>
  <path d="M144 220h24M156 200v40" stroke="#333" stroke-width="1"/>
  
  <rect x="200" y="200" width="24" height="40" rx="4" fill="#87ceeb" stroke="#333" stroke-width="2"/>
  <path d="M200 220h24M212 200v40" stroke="#333" stroke-width="1"/>
  
  <rect x="312" y="200" width="24" height="40" rx="4" fill="#87ceeb" stroke="#333" stroke-width="2"/>
  <path d="M312 220h24M324 200v40" stroke="#333" stroke-width="1"/>
  
  <rect x="368" y="200" width="24" height="40" rx="4" fill="#87ceeb" stroke="#333" stroke-width="2"/>
  <path d="M368 220h24M380 200v40" stroke="#333" stroke-width="1"/>
  
  <!-- RTI text -->
  <text x="256" y="142" text-anchor="middle" font-family="Arial, sans-serif" font-size="16" font-weight="bold" fill="#333">RTI COLLEGE</text>
</svg> 